<svg xmlns="http://www.w3.org/2000/svg" viewBox="0 0 512 512" role="img" aria-label="Rainy 数独">
  <rect width="512" height="512" rx="104" fill="#fffaf0"/>
  <circle cx="96" cy="96" r="18" fill="#ffd45c"/>
  <circle cx="416" cy="96" r="18" fill="#ffd45c"/>
  <circle cx="96" cy="416" r="18" fill="#ffd45c"/>
  <circle cx="416" cy="416" r="18" fill="#ffd45c"/>
  <path d="M96 218c18-72 78-112 160-112s142 40 160 112H96Z" fill="#ffcf56"/>
  <path d="M118 218c32-47 77-70 138-70s106 23 138 70H118Z" fill="#ff8f70"/>
  <path d="M250 218v122c0 42-28 68-68 68-35 0-61-21-61-55" fill="none" stroke="#26364a" stroke-width="34" stroke-linecap="round"/>
  <circle cx="201" cy="260" r="18" fill="#26364a"/>
  <circle cx="330" cy="260" r="18" fill="#26364a"/>
  <path d="M224 318c30 24 70 24 100 0" fill="none" stroke="#26364a" stroke-width="28" stroke-linecap="round"/>
  <rect x="120" y="356" width="272" height="38" rx="19" fill="#3ab7a6"/>
</svg>
